<svg width="300" height="100" xmlns="http://www.w3.org/2000/svg" class="iconLeft">
 <!---->
 <defs>
  <!---->
  <linearGradient y2="0%" x2="100%" y1="0%" x1="0%" id="0e171ee4-4b60-4404-8cd9-a6f636f06bc3" gradientTransform="rotate(25)">
   <stop stop-color="#00EEE1" offset="0%"/>
   <stop stop-color="#FFD233" offset="100%"/>
  </linearGradient>
 </defs>
 <defs>
  <!---->
 </defs>

 <!---->
 <g>
  <title>Layer 1</title>
  <rect stroke="null" x="0.15956" y="0.13753" id="svg_1" class="logo-background-square" height="99.37592" width="299.66559" fill="#EFFBEE"/>
  <g transform="matrix(2.63091 0 0 2.63091 89.4381 125.743)" fill="#1F321D" id="c544ac5b-b29f-4b8b-bfab-c67b3c91fe34">
   <path id="svg_2" d="m0.51685,-35.51541l0,9.69l1.43,0l0,-9.69l-1.43,0zm8.67,2.8l0,1c-0.6,-0.7 -1.49,-1.12 -2.51,-1.12c-1.94,0 -3.37,1.49 -3.37,3.57c0,2.07 1.43,3.57 3.37,3.57c1.02,0 1.91,-0.42 2.51,-1.12l0,0.99l1.43,0l0,-6.89l-1.43,0zm-2.21,5.77c-1.28,0 -2.2,-0.97 -2.2,-2.32c0,-1.35 0.92,-2.33 2.2,-2.33c1.28,0 2.21,0.98 2.21,2.33c0,1.35 -0.93,2.32 -2.21,2.32zm9.35,-5.89c-1.04,0 -1.92,0.42 -2.52,1.12l0,-3.8l-1.43,0l0,9.69l1.43,0l0,-0.99c0.6,0.7 1.48,1.12 2.52,1.12c1.94,0 3.36,-1.5 3.36,-3.57c0,-2.08 -1.42,-3.57 -3.36,-3.57zm-0.31,5.89c-1.29,0 -2.21,-0.97 -2.21,-2.32c0,-1.35 0.92,-2.33 2.21,-2.33c1.27,0 2.2,0.98 2.2,2.33c0,1.35 -0.93,2.32 -2.2,2.32zm11.97,-2.31c-0.01,-2.09 -1.54,-3.58 -3.67,-3.58c-2.13,0 -3.68,1.49 -3.68,3.57c0,2.07 1.55,3.57 3.68,3.57c1.7,0 3.17,-1.1 3.56,-2.62l-1.46,0c-0.26,0.82 -1.1,1.44 -2.08,1.44c-1.19,0 -2.1,-0.8 -2.29,-1.95l5.9,0c0.03,-0.14 0.04,-0.29 0.04,-0.43zm-3.65,-2.41c1.13,0 2.04,0.72 2.28,1.74l-4.52,0c0.25,-1.04 1.12,-1.74 2.24,-1.74zm4.99,-3.85l0,9.69l1.43,0l0,-9.69l-1.43,0zm8.67,0l0,3.8c-0.6,-0.7 -1.48,-1.12 -2.51,-1.12c-1.94,0 -3.37,1.49 -3.37,3.57c0,2.07 1.43,3.57 3.37,3.57c1.03,0 1.91,-0.42 2.51,-1.12l0,0.99l1.43,0l0,-9.69l-1.43,0zm-2.21,8.57c-1.28,0 -2.2,-0.97 -2.2,-2.32c0,-1.35 0.92,-2.33 2.2,-2.33c1.29,0 2.21,0.98 2.21,2.33c0,1.35 -0.92,2.32 -2.21,2.32zm6.83,-4.16l0,-1.61l-1.43,0l0,6.89l1.43,0l0,-3.4c0,-1.42 0.99,-2.26 2.59,-2.26l0,-1.41c-1.22,0 -2.13,0.66 -2.59,1.79zm6.75,-1.73c-2.13,0 -3.68,1.49 -3.68,3.57c0,2.07 1.55,3.57 3.68,3.57c2.13,0 3.67,-1.5 3.67,-3.57c0,-2.08 -1.54,-3.57 -3.67,-3.57zm-0.02,1.24c1.29,0 2.22,0.98 2.22,2.33c0,1.35 -0.93,2.32 -2.22,2.32c-1.27,0 -2.19,-0.97 -2.19,-2.32c0,-1.35 0.92,-2.33 2.19,-2.33zm6.67,-2.98c0,-0.5 -0.38,-0.84 -0.91,-0.84c-0.55,0 -0.91,0.34 -0.91,0.84c0,0.49 0.36,0.84 0.91,0.84c0.53,0 0.91,-0.35 0.91,-0.84zm-1.63,1.86l0,6.89l1.43,0l0,-6.89l-1.43,0zm8.66,-2.8l0,3.8c-0.61,-0.7 -1.49,-1.12 -2.51,-1.12c-1.95,0 -3.37,1.49 -3.37,3.57c0,2.07 1.42,3.57 3.37,3.57c1.02,0 1.9,-0.42 2.51,-1.12l0,0.99l1.42,0l0,-9.69l-1.42,0zm-2.22,8.57c-1.27,0 -2.19,-0.97 -2.19,-2.32c0,-1.35 0.92,-2.33 2.19,-2.33c1.29,0 2.22,0.98 2.22,2.33c0,1.35 -0.93,2.32 -2.22,2.32z"/>
  </g>
  <g transform="matrix(1.21104 0 0 1.21104 40 130.623)" fill="url(#0e171ee4-4b60-4404-8cd9-a6f636f06bc3)" id="b91d4efc-124c-4f53-a3d4-33124154000d">
   <path id="svg_3" d="m9.11903,-77.58022l13.943,0l0,13.943l8.675,8.675l0,-31.293l-31.293,0l8.675,8.675zm13.236,14.65l-13.943,0l0,-13.943l-8.675,-8.675l0,31.293l31.293,0l-8.675,-8.675z"/>
  </g>
 </g>
</svg>