<svg data-v-fde0c5aa="" xmlns="http://www.w3.org/2000/svg" viewBox="0 0 300 300" class="iconLeft"><!----><defs data-v-fde0c5aa=""><!----></defs><rect data-v-fde0c5aa="" fill="#EFFBEE" x="0" y="0" width="300px" height="300px" class="logo-background-square"></rect><defs data-v-fde0c5aa=""><!----></defs><g data-v-fde0c5aa="" id="c544ac5b-b29f-4b8b-bfab-c67b3c91fe34" fill="#1F321D" transform="matrix(2.6309099572135626,0,0,2.6309099572135626,89.43810547916488,125.74300949196221)"><path d="M0.88 4.31L0.88 14L2.31 14L2.31 4.31ZM9.55 7.11L9.55 8.11C8.95 7.41 8.06 6.99 7.04 6.99C5.10 6.99 3.67 8.48 3.67 10.56C3.67 12.63 5.10 14.13 7.04 14.13C8.06 14.13 8.95 13.71 9.55 13.01L9.55 14L10.98 14L10.98 7.11ZM7.34 12.88C6.06 12.88 5.14 11.91 5.14 10.56C5.14 9.21 6.06 8.23 7.34 8.23C8.62 8.23 9.55 9.21 9.55 10.56C9.55 11.91 8.62 12.88 7.34 12.88ZM16.69 6.99C15.65 6.99 14.77 7.41 14.17 8.11L14.17 4.31L12.74 4.31L12.74 14L14.17 14L14.17 13.01C14.77 13.71 15.65 14.13 16.69 14.13C18.63 14.13 20.05 12.63 20.05 10.56C20.05 8.48 18.63 6.99 16.69 6.99ZM16.38 12.88C15.09 12.88 14.17 11.91 14.17 10.56C14.17 9.21 15.09 8.23 16.38 8.23C17.65 8.23 18.58 9.21 18.58 10.56C18.58 11.91 17.65 12.88 16.38 12.88ZM28.35 10.57C28.34 8.48 26.81 6.99 24.68 6.99C22.55 6.99 21 8.48 21 10.56C21 12.63 22.55 14.13 24.68 14.13C26.38 14.13 27.85 13.03 28.24 11.51L26.78 11.51C26.52 12.33 25.68 12.95 24.70 12.95C23.51 12.95 22.60 12.15 22.41 11.00L28.31 11.00C28.34 10.86 28.35 10.71 28.35 10.57ZM24.70 8.16C25.83 8.16 26.74 8.88 26.98 9.90L22.46 9.90C22.71 8.86 23.58 8.16 24.70 8.16ZM29.69 4.31L29.69 14L31.12 14L31.12 4.31ZM38.36 4.31L38.36 8.11C37.76 7.41 36.88 6.99 35.85 6.99C33.91 6.99 32.48 8.48 32.48 10.56C32.48 12.63 33.91 14.13 35.85 14.13C36.88 14.13 37.76 13.71 38.36 13.01L38.36 14L39.79 14L39.79 4.31ZM36.15 12.88C34.87 12.88 33.95 11.91 33.95 10.56C33.95 9.21 34.87 8.23 36.15 8.23C37.44 8.23 38.36 9.21 38.36 10.56C38.36 11.91 37.44 12.88 36.15 12.88ZM42.98 8.72L42.98 7.11L41.55 7.11L41.55 14L42.98 14L42.98 10.60C42.98 9.18 43.97 8.34 45.57 8.34L45.57 6.93C44.35 6.93 43.44 7.59 42.98 8.72ZM49.73 6.99C47.60 6.99 46.05 8.48 46.05 10.56C46.05 12.63 47.60 14.13 49.73 14.13C51.86 14.13 53.40 12.63 53.40 10.56C53.40 8.48 51.86 6.99 49.73 6.99ZM49.71 8.23C51.00 8.23 51.93 9.21 51.93 10.56C51.93 11.91 51.00 12.88 49.71 12.88C48.44 12.88 47.52 11.91 47.52 10.56C47.52 9.21 48.44 8.23 49.71 8.23ZM56.38 5.25C56.38 4.75 56 4.41 55.47 4.41C54.92 4.41 54.56 4.75 54.56 5.25C54.56 5.74 54.92 6.09 55.47 6.09C56 6.09 56.38 5.74 56.38 5.25ZM54.75 7.11L54.75 14L56.18 14L56.18 7.11ZM63.41 4.31L63.41 8.11C62.80 7.41 61.92 6.99 60.90 6.99C58.95 6.99 57.53 8.48 57.53 10.56C57.53 12.63 58.95 14.13 60.90 14.13C61.92 14.13 62.80 13.71 63.41 13.01L63.41 14L64.83 14L64.83 4.31ZM61.19 12.88C59.92 12.88 59.00 11.91 59.00 10.56C59.00 9.21 59.92 8.23 61.19 8.23C62.48 8.23 63.41 9.21 63.41 10.56C63.41 11.91 62.48 12.88 61.19 12.88Z"></path></g><defs data-v-fde0c5aa=""><linearGradient data-v-fde0c5aa="" gradientTransform="rotate(25)" id="0e171ee4-4b60-4404-8cd9-a6f636f06bc3" x1="0%" y1="0%" x2="100%" y2="0%"><stop data-v-fde0c5aa="" offset="0%" stop-color="#00EEE1" stop-opacity="1"></stop><stop data-v-fde0c5aa="" offset="100%" stop-color="#FFD233" stop-opacity="1"></stop></linearGradient></defs><g data-v-fde0c5aa="" id="b91d4efc-124c-4f53-a3d4-33124154000d" stroke="none" fill="url(#0e171ee4-4b60-4404-8cd9-a6f636f06bc3)" transform="matrix(1.2110408196552394,0,0,1.2110408196552394,40,130.62334688551618)"><path d="M9.382 8.675h13.943v13.943L32 31.293V0H.707zM22.618 23.325H8.675V9.382L0 .707V32h31.293z"></path></g><!----></svg>